<?xml version="1.0" encoding="UTF-8"?>
<svg id="Layer_2" data-name="Layer 2" xmlns="http://www.w3.org/2000/svg" viewBox="0 0 315.93 298.81">
  <defs>
    <style>
      .cls-1 {
        fill: #1a3f4f;
      }
    </style>
  </defs>
  <g id="Layer_1-2" data-name="Layer 1">
    <g>
      <path class="cls-1" d="m99.69,155.98l13.16-83.17h-14.1c-6.64,0-15.08-3.67-17.61-10.49-.84-2.27-2.73-10.24,8.18-17.94,3.85-2.7,6.42-5.69,6.91-7.99.5-2.39-.13-4.49-1.82-6.1-2.42-2.29-7.07-3.55-13.1-3.55-10.14,0-17.25,5.85-17.9,10.04-.47,3.11,1.94,5.62,4.04,7.16,6.29,4.66,7.78,11.53,3.87,17.94-4.01,6.61-12.65,10.91-22.04,10.96,0,0-9.17-.02-14.36-.03-1.24,8.11-20.78,132.31-22.28,142.08h77.84c.68-4.41,4.32-27.85,9.22-58.93h0Z"/>
      <g>
        <path class="cls-1" d="m8.44,243.59h31.88c13.58,0,16.91,6.88,15.94,13.18-.79,5.12-4.25,8.87-10.31,11.35,7.63,2.88,10.6,7.43,9.51,14.46-1.37,8.87-9.11,15.5-19.18,15.5H0l8.44-54.49Zm21.11,22.61c6.23,0,9.14-3.28,9.75-7.19.64-4.15-1.3-7.11-7.53-7.11h-5.51l-2.22,14.3h5.51Zm-3.41,23.58c6.39,0,10.15-2.56,10.98-7.91.71-4.56-1.9-7.35-8.13-7.35h-6.23l-2.36,15.26h5.75Z"/>
        <path class="cls-1" d="m100.14,298.65c-8.32.56-12.34-.32-14.34-3.92-4.41,2.72-9.26,4.08-14.45,4.08-9.43,0-12.67-4.87-11.83-10.31.4-2.56,1.91-5.11,4.31-7.19,5.17-4.47,17.97-5.12,22.98-8.55.43-3.83-1.12-5.2-5.83-5.2-5.51,0-10.11,1.84-17.98,7.19l1.92-12.39c6.84-4.95,13.41-7.18,21.01-7.18,9.75,0,18.32,3.99,16.67,14.62l-1.86,11.99c-.66,4.24-.53,5.51,4.17,5.6l-4.78,11.26Zm-14.42-18.86c-4.43,2.8-12.59,2.32-13.47,8.07-.42,2.72,1.27,4.72,3.98,4.72s5.85-1.12,8.36-2.87c-.17-.96-.09-2,.21-3.92l.93-6Z"/>
        <path class="cls-1" d="m115.67,255.9h16.62l-.86,5.52c5.25-4.47,9.27-6.23,14.55-6.23,9.27,0,13.59,5.67,12.14,15.02l-4.32,27.89h-16.62l3.58-23.09c.65-4.23-.57-6.15-3.84-6.15-2.63,0-5.02,1.44-7.34,4.55l-3.82,24.7h-16.62l6.53-42.19Z"/>
        <path class="cls-1" d="m170.91,243.59h16.62l-4.16,26.85,15.91-14.55h20.54l-20.44,17.98,16.39,24.21h-20.86l-12.64-19.5h-.16l-3.02,19.5h-16.62l8.44-54.49Z"/>
      </g>
      <path class="cls-1" d="m229.7,243.59h19.09l-8.44,54.49h-19.09l8.44-54.49Z"/>
      <path class="cls-1" d="m258.07,243.59h27.33c21.09,0,27.19,15.34,25.23,27.97-1.92,12.38-11.7,26.53-30.24,26.53h-30.76l8.44-54.49Zm17.7,41.55c9.27,0,14.37-4.56,15.88-14.3,1.11-7.19-1.07-14.31-11.37-14.31h-5.12l-4.43,28.61h5.04Z"/>
      <path class="cls-1" d="m204.23,0h-79.45l-10.64,67.29,13.51.03c7.39-.04,14.35-3.37,17.35-8.31.96-1.57,1.35-2.99,1.35-4.28,0-2.79-1.87-4.89-3.78-6.3-5.24-3.88-6.34-8.05-6.34-10.88,0-.6.05-1.13.12-1.59,1.1-7.12,10.75-14.75,23.37-14.75,7.56,0,13.41,1.76,16.9,5.08,3.07,2.91,4.32,7.01,3.44,11.26-1.07,5.07-6.19,9.31-9.14,11.39-7.68,5.41-6.67,10.14-6.18,11.46,1.58,4.24,7.67,6.87,12.42,6.87h20.59s0,.03,0,.07c28,.22,43.05,13.09,38.31,43.07-4.41,27.85-25.77,39.85-51.26,40.14l-10.12,64.38h14.93c62.93,0,114.33-40.44,124.43-104.23C326.51,31.66,276.27,0,204.23,0Z"/>
    </g>
  </g>
</svg>