<?xml version="1.0" encoding="UTF-8"?>
<svg id="Layer_2" data-name="Layer 2" xmlns="http://www.w3.org/2000/svg" viewBox="0 0 223.36 193.89">
  <defs>
    <style>
      .cls-1 {
        fill: #fff;
      }

      .cls-2 {
        fill: #1a3f4f;
      }
    </style>
  </defs>
  <g id="Layer_2-2" data-name="Layer 2">
    <rect class="cls-1" width="223.36" height="193.89" rx="53.68" ry="53.68"/>
    <g id="Layer_1-2" data-name="Layer 1-2">
      <g>
        <path class="cls-2" d="m82.62,96.45l6.56-41.47h-7.03c-3.31,0-7.52-1.83-8.78-5.23-.42-1.13-1.36-5.11,4.08-8.95,1.92-1.35,3.2-2.84,3.45-3.98.25-1.19-.06-2.24-.91-3.04-1.21-1.14-3.53-1.77-6.53-1.77-5.06,0-8.6,2.92-8.93,5.01-.23,1.55.97,2.8,2.01,3.57,3.14,2.32,3.88,5.75,1.93,8.95-2,3.3-6.31,5.44-10.99,5.47,0,0-4.57,0-7.16-.01-.62,4.04-10.36,65.98-11.11,70.85h38.82c.34-2.2,2.15-13.89,4.6-29.39h0Z"/>
        <g>
          <path class="cls-2" d="m37.12,140.13h15.9c6.77,0,8.43,3.43,7.95,6.57-.39,2.55-2.12,4.42-5.14,5.66,3.8,1.44,5.29,3.71,4.74,7.21-.68,4.42-4.54,7.73-9.56,7.73h-18.09l4.21-27.17h0Zm10.53,11.27c3.11,0,4.56-1.64,4.86-3.59.32-2.07-.65-3.55-3.75-3.55h-2.75l-1.11,7.13h2.75Zm-1.7,11.76c3.19,0,5.06-1.28,5.48-3.94.35-2.27-.95-3.67-4.05-3.67h-3.11l-1.18,7.61h2.87,0Z"/>
          <path class="cls-2" d="m82.84,167.59c-4.15.28-6.15-.16-7.15-1.95-2.2,1.36-4.62,2.03-7.21,2.03-4.7,0-6.32-2.43-5.9-5.14.2-1.28.95-2.55,2.15-3.59,2.58-2.23,8.96-2.55,11.46-4.26.21-1.91-.56-2.59-2.91-2.59-2.75,0-5.04.92-8.97,3.59l.96-6.18c3.41-2.47,6.69-3.58,10.48-3.58,4.86,0,9.14,1.99,8.31,7.29l-.93,5.98c-.33,2.11-.26,2.75,2.08,2.79l-2.38,5.61h0Zm-7.19-9.4c-2.21,1.4-6.28,1.16-6.72,4.02-.21,1.36.63,2.35,1.98,2.35s2.92-.56,4.17-1.43c-.08-.48-.04-1,.1-1.95l.46-2.99h0Z"/>
          <path class="cls-2" d="m90.59,146.27h8.29l-.43,2.75c2.62-2.23,4.62-3.11,7.26-3.11,4.62,0,6.78,2.83,6.05,7.49l-2.15,13.91h-8.29l1.79-11.51c.32-2.11-.28-3.07-1.91-3.07-1.31,0-2.5.72-3.66,2.27l-1.9,12.32h-8.29l3.26-21.04h0Z"/>
          <path class="cls-2" d="m118.13,140.13h8.29l-2.07,13.39,7.93-7.26h10.24l-10.19,8.97,8.17,12.07h-10.4l-6.3-9.72h-.08l-1.51,9.72h-8.29l4.21-27.17h0Z"/>
        </g>
        <path class="cls-2" d="m147.45,140.13h9.52l-4.21,27.17h-9.52l4.21-27.17h0Z"/>
        <path class="cls-2" d="m161.6,140.13h13.63c10.52,0,13.56,7.65,12.58,13.95-.96,6.17-5.83,13.23-15.08,13.23h-15.34l4.21-27.17h0Zm8.83,20.71c4.62,0,7.17-2.27,7.92-7.13.55-3.59-.53-7.14-5.67-7.14h-2.55l-2.21,14.27h2.51,0Z"/>
        <path class="cls-2" d="m134.75,18.67h-39.62l-5.31,33.55h6.74c3.69,0,7.16-1.67,8.65-4.13.48-.78.67-1.49.67-2.13,0-1.39-.93-2.44-1.88-3.14-2.61-1.93-3.16-4.01-3.16-5.43,0-.3.02-.56.06-.79.55-3.55,5.36-7.36,11.65-7.36,3.77,0,6.69.88,8.43,2.53,1.53,1.45,2.15,3.5,1.72,5.61-.53,2.53-3.09,4.64-4.56,5.68-3.83,2.7-3.33,5.06-3.08,5.71.79,2.11,3.82,3.43,6.19,3.43h10.27v.03c13.96.11,21.47,6.53,19.1,21.48-2.2,13.89-12.85,19.87-25.56,20.02l-5.05,32.1h7.44c31.38,0,57.01-20.17,62.05-51.98,6.22-39.41-18.83-55.2-54.76-55.2Z"/>
      </g>
    </g>
  </g>
</svg>