<?xml version="1.0" encoding="UTF-8"?>
<svg id="Layer_2" data-name="Layer 2" xmlns="http://www.w3.org/2000/svg" viewBox="0 0 1186.86 1186.86">
  <defs>
    <style>
      .cls-1 {
        fill: #fff;
        stroke: #4b54a1;
        stroke-miterlimit: 10;
        stroke-width: 77px;
      }

      .cls-2 {
        fill: #4b54a1;
      }
    </style>
  </defs>
  <g id="Layer_2-2" data-name="Layer 2">
    <g>
      <path class="cls-2" d="m593.43,0C265.69,0,0,265.69,0,593.43s265.69,593.43,593.43,593.43,593.43-265.69,593.43-593.43S921.17,0,593.43,0Zm336.91,705.88c0,99.22-80.44,179.66-179.66,179.66h-312.8c-99.22,0-179.66-80.44-179.66-179.66v-232.01c0-99.22,80.44-179.66,179.66-179.66h312.8c99.22,0,179.66,80.44,179.66,179.66v232.01Z"/>
      <path class="cls-2" d="m371.44,558.14h41.06c11.68,0,21.17,9.49,21.17,21.17v27.56c0,11.68-9.49,21.17-21.17,21.17h-41.06c-11.68,0-21.17-9.49-21.17-21.17v-27.56c0-11.68,9.49-21.17,21.17-21.17Z"/>
      <path class="cls-2" d="m503.12,558.14h41.06c11.68,0,21.17,9.49,21.17,21.17v27.56c0,11.68-9.49,21.17-21.17,21.17h-41.06c-11.68,0-21.17-9.49-21.17-21.17v-27.56c0-11.68,9.49-21.17,21.17-21.17Z"/>
      <path class="cls-2" d="m634.8,558.14h41.06c11.68,0,21.17,9.49,21.17,21.17v27.56c0,11.68-9.49,21.17-21.17,21.17h-41.06c-11.68,0-21.17-9.49-21.17-21.17v-27.56c0-11.68,9.49-21.17,21.17-21.17Z"/>
      <path class="cls-2" d="m766.48,558.14h41.06c11.68,0,21.17,9.49,21.17,21.17v27.56c0,11.68-9.49,21.17-21.17,21.17h-41.06c-11.68,0-21.17-9.49-21.17-21.17v-27.56c0-11.68,9.49-21.17,21.17-21.17Z"/>
      <rect class="cls-2" x="350.27" y="675.42" width="83.4" height="69.9" rx="21.17" ry="21.17"/>
      <rect class="cls-2" x="481.95" y="675.42" width="83.4" height="69.9" rx="21.17" ry="21.17"/>
      <rect class="cls-2" x="613.63" y="675.42" width="83.4" height="69.9" rx="21.17" ry="21.17"/>
      <rect class="cls-2" x="745.31" y="675.42" width="83.4" height="69.9" rx="21.17" ry="21.17"/>
    </g>
    <line class="cls-1" x1="213.43" y1="446.76" x2="1009.87" y2="446.76"/>
  </g>
</svg>