<?xml version="1.0" encoding="UTF-8"?>
<svg id="Layer_2" data-name="Layer 2" xmlns="http://www.w3.org/2000/svg" viewBox="0 0 1186.86 1186.86">
  <defs>
    <style>
      .cls-1 {
        fill: #4b54a1;
      }
    </style>
  </defs>
  <g id="Layer_1-2" data-name="Layer 1">
    <path class="cls-1" d="m1109.02,238.62L671.42,18.2c-48.17-24.26-107.52-24.26-155.69,0L78.14,238.61C29.97,262.88.29,307.72.29,356.25v187.34c0,1.44-.06,2.88-.17,4.32-.07.96-.13,1.92-.13,2.89v492.99c0,79.02,73.42,143.07,163.99,143.07h163.52c41.08,0,74.38-29.05,74.38-64.89v-217.8c0-92.29,85.75-167.1,191.53-167.1h0c105.78,0,191.53,74.81,191.53,167.1v217.8c0,35.84,33.3,64.89,74.38,64.89h162.83c90.57,0,163.99-64.06,163.99-143.07v-200c.46-3.04.7-6.12.7-9.24v-478.3c0-48.53-29.68-93.37-77.85-117.64Z"/>
  </g>
</svg>