<?xml version="1.0" encoding="UTF-8"?>
<svg id="Layer_2" data-name="Layer 2" xmlns="http://www.w3.org/2000/svg" viewBox="0 0 1186.86 1186.86">
  <defs>
    <style>
      .cls-1 {
        fill: #fff;
      }
    </style>
  </defs>
  <g id="Layer_1-2" data-name="Layer 1">
    <path class="cls-1" d="m593.43,0C265.69,0,0,265.69,0,593.43s265.69,593.43,593.43,593.43,593.43-265.69,593.43-593.43S921.17,0,593.43,0Zm103.39,970.39c0,23.12-18.75,41.87-41.87,41.87h-123.04c-23.12,0-41.87-18.75-41.87-41.87v-488.06c0-23.12,18.75-41.87,41.87-41.87h123.04c23.12,0,41.87,18.75,41.87,41.87v488.06Zm0-654.09c0,23.12-18.75,41.87-41.87,41.87h-123.04c-23.12,0-41.87-18.75-41.87-41.87v-99.83c0-23.12,18.75-41.87,41.87-41.87h123.04c23.12,0,41.87,18.75,41.87,41.87v99.83Z"/>
  </g>
</svg>