<?xml version="1.0" encoding="UTF-8"?>
<svg id="Layer_2" data-name="Layer 2" xmlns="http://www.w3.org/2000/svg" viewBox="0 0 1186.86 1186.86">
  <defs>
    <style>
      .cls-1 {
        fill: #fff;
      }
    </style>
  </defs>
  <g id="Layer_1-2" data-name="Layer 1">
    <path class="cls-1" d="m593.43,0C265.69,0,0,265.69,0,593.43s265.69,593.43,593.43,593.43,593.43-265.69,593.43-593.43S921.17,0,593.43,0Zm389.48,823.35l-47.86,51.19-42.36,45.3c-36.83,39.38-94.35,45.44-128.47,13.53L246.29,449.05c-34.12-31.91-31.93-89.7,4.89-129.09l44.9-48.02,45.33-48.47c22.72-24.3,60.84-25.58,85.13-2.85l111.4,104.17c24.3,22.72,25.58,60.84,2.86,85.13l-29.37,31.41c-9.26,9.9-8.77,25.43,1.09,34.74l205.94,194.21c9.92,9.36,25.57,8.87,34.88-1.1l30.18-32.28c22.72-24.3,60.84-25.58,85.13-2.85l111.4,104.17c24.3,22.72,25.58,60.84,2.85,85.13Z"/>
  </g>
</svg>