<?xml version="1.0" encoding="UTF-8"?>
<svg id="Layer_2" data-name="Layer 2" xmlns="http://www.w3.org/2000/svg" viewBox="0 0 1186.86 1186.86">
  <defs>
    <style>
      .cls-1 {
        fill: #4b54a1;
      }
    </style>
  </defs>
  <g id="Layer_1-2" data-name="Layer 1">
    <path class="cls-1" d="m593.43,0C265.69,0,0,265.69,0,593.43s265.69,593.43,593.43,593.43,593.43-265.69,593.43-593.43S921.17,0,593.43,0Zm0,152.02c76.7,0,138.88,62.18,138.88,138.88s-62.18,138.88-138.88,138.88-138.88-62.18-138.88-138.88,62.18-138.88,138.88-138.88Zm285.31,776.61c0,13.32-10.8,24.12-24.12,24.12H332.24c-13.32,0-24.12-10.8-24.12-24.12v-36.26h.01c1.42-214.13,128.61-387.11,285.3-387.11s283.88,172.98,285.3,387.11h.01v36.26Z"/>
  </g>
</svg>